<svg version="1.1" id="Слой_1" xmlns="http://www.w3.org/2000/svg" x="0" y="0" viewBox="0 0 5000 5000" style="enable-background:new 0 0 5000 5000" xml:space="preserve"><style>.st2{fill:#fff}</style><path class="st2" d="M2212.21 2288.84c-11.28-.59-22.56-1.17-33.3-1.73-5.6 26.43-7.69 52.98-17.26 76.48-8.59 21.08-23.51 40.56-39.2 57.43-12.19 13.11-14.51 23.29-5.87 38.15 18.49 31.78 36.84 63.68 54.11 96.13 5.98 11.25 8.61 24.28 14.01 40.12-48.05 0-92.19 6.2-132.94-2.84-18.04-4-30.56-38.09-43.15-59.91-10.38-18-16.58-38.37-26.03-56.97-2.28-4.48-10.09-6.15-15.36-9.11-2.77 5.36-7.98 10.76-7.89 16.08.42 26.87 1.43 53.79 3.77 80.56 2.26 25.89-10.25 35.71-34.04 34.52-26.94-1.35-54.65-.24-80.35-6.79-10.27-2.62-22.44-22.7-22.72-35.08-.96-42.81 4.22-85.72 4.6-128.62.33-37.06-3.35-74.14-4.05-111.24-.94-50.05-1.48-100.13-.69-150.17.45-28.57 17.84-46.88 45.6-46.2 63.73 1.57 127.45 4.72 191.07 8.91 11.42.75 22.38 9.41 33.42 14.71 23.13 11.09 37.43 40.24 69.98 33.13 4.25-.93 10.85 8.9 21.09 17.9-15.39 2.5-23.33 3.79-37.59 6.11 8.91 8.49 14.33 17.92 19.36 17.72 23.55-.93 47-4.52 70.48-7.16l-1.5-10.61c-10.13 0-20.62 1.6-30.25-.59-5.86-1.33-10.39-8.51-15.51-13.07 4.7-3.83 10.07-11.57 13.99-10.89 58 10.03 101.71-22.51 150.51-44.85 82.86-37.92 167.73-33.6 247.75 12.57 28.16 16.24 53.55 37.23 80.77 55.19 4.46 2.94 13.09 3.86 17.72 1.55 29.19-14.53 57.79-30.23 88.08-46.34-18.57-35.42-43.38-57.6-77.67-65.72-33.66-7.97-68.53-10.73-102.45-17.81a329.794 329.794 0 0 1-62.86-19.9c-8.1-3.5-12.81-14.85-19.07-22.62 8.17-6.08 15.86-16.55 24.58-17.51 42.87-4.69 86.28-11.28 129.01-8.8 56.03 3.26 108.72 24.22 149.98 62.71 26.01 24.26 52.16 20.23 72.78 5.11 51.71-37.9 112.4-53.8 169.33-78.91 5.93-2.62 10.95-9.51 14.18-15.59 7.78-14.61 11.49-40.1 21.81-42.9 23.92-6.49 53.39-8.96 75.75-.38 24.71 9.48 34.91 5.17 45.73-15.37 21.34-40.53 39.56-81.68 35.52-128.91-63.41-14.54-79.87-42.63-60.47-108.89 6.71-22.92 2.22-33.65-19.97-40.77-17.23-5.53-33.37-14.48-52.19-22.88 5.46-6.64 8.07-12.4 12.5-14.82 45.82-25.01 90.99-51.51 138.24-73.53 48.66-22.68 102.43 3.62 116.9 54.51 10.72 37.72 16.6 75.71-3.59 112.86-8.9 16.39 3.37 22.63 15.4 27.92 103.71 45.59 146.71 160.23 97.48 262.4-10.12 21-14.11 39.91-6.03 63.37 24.62 71.53-.43 132.71-46.01 187.24-34.09 40.78-71.1 79.12-105.04 120.01-6.18 7.44-9.27 25.93-4.47 32.44 15.01 20.36 31.91 41.32 52.68 55.11 94.28 62.61 190.28 122.61 285.3 184.12 17.81 11.53 34.36 25.16 50.68 38.8 6.59 5.5 10.98 13.63 16.37 20.57-1.48 2.55-2.97 5.1-4.45 7.66-12.42-2.77-25.63-3.72-37.12-8.65-37.33-16.01-73.56-34.7-111.31-49.58-10.03-3.95-24.57.18-36.03 3.8-54.07 17.05-107.77 35.27-161.64 52.94-10.3 3.38-20.8 6.17-31.26 12.5 59.02 22.63 108.13 55.04 141.87 107.91 86.8 136.01 58.78 280.79-58.48 365.7-71.52 51.79-152.22 64.27-235.79 23.81-88.76-42.97-137.28-114.42-145.02-211.68-3.1-38.96 2.39-78.61 4.06-120.01-53.82-23.91-98.91-24.96-100.09-6.25 13.91 5.13 25.97 9.57 38.03 14.02-9.69 7.55-19.38 15.1-25.24 19.67-14.6 39.51-28.73 77.83-42.98 116.09-1.3 3.49-2.63 8.55-5.31 9.69-40.56 17.27-25.81 41.5-9.92 67.45 16.67 27.22 32.01 55.28 46.91 83.52 5.52 10.47 8.13 22.47 13.48 37.82-49.34 0-93.98 5.08-136.37-2.49-17.09-3.05-31.42-32.53-43.01-52.32-12.41-21.17-19.44-45.43-30.38-67.58-2.44-4.95-11.35-6.7-17.28-9.92-2.53 5.51-7.32 11.08-7.21 16.54.62 28.77 2.79 57.51 3.8 86.27.76 21.52-10.04 32.56-31.85 31.46-28.82-1.46-58.44.05-86.03-6.68-10.81-2.64-23.82-23.95-24.1-37.02-.98-44.45 4.5-89 5.13-133.54.51-36.08-2.94-72.19-3.66-108.31-1.06-52.96-1.75-105.93-1.62-158.9.08-32.61 16.45-50.11 48.59-49.39 65.48 1.46 131.06 3.13 196.26 8.7 18.26 1.56 38.01 14.08 52.24 26.92 15.98 14.41 30.21 25.29 52.92 23 5.81-.59 12.46 7.21 24.83 15-15.5 5.15-23.05 7.66-30.59 10.16-9.13 10.97 13.68 24.91 35.28 20.79 14.06-2.68 27.83-6.92 49.62-12.47-21.89-7.42-37.43-12.7-56.86-19.29 44.59-35.54 44.18-54.12 1.58-85.13-36.75-26.75-75.23-51.14-112.18-77.63-48.38-34.68-57.67-62.69-41.35-120.29 4.2-14.84 6.94-31.23 15.31-43.54 26.51-38.97 13.7-71.09-12.99-102.54-4.12-4.86-10.35-13.86-8.6-16.87 19.02-32.66-11.83-58.46-8.52-96.26-33.66 19.54-62.58 35.55-90.35 53.36-3.78 2.42-3 13.95-2.3 21.05 11.43 116.14-32.75 207.15-133.79 262.44-178.07 97.45-376.11-17.49-399.39-185.48-5.08-36.64 6.34-75.57 10.16-113.45 2.89-12.52 5.78-25.04 8.68-37.58-37.32-7.46-49.9-3.48-47.93 14.14 29.78-9.53 31.96-8.23 39.24 23.49zm379.17-20.57c-35.38-48.86-102.14-71.15-154.09-52.9 1.92 7.16 3.87 14.42 6.58 24.51-15.58 1.27-28.14 4.47-40.03 2.82-29.36-4.09-46.8 10.66-62.06 32.86-38.1 55.42-38.14 127.41.89 182.25 38.55 54.17 105.39 76.12 172.3 56.6 70-20.43 117-81.29 109.23-152.94-17.67 19.77-30.85 34.73-44.31 49.42-3.78 4.13-7.9 8.42-12.73 11.05-38.46 21.04-78.3 29.29-122.42 18.84-39.62-9.38-58.03-35.29-66.24-71.79-7.73-34.35 11-58.21 35.28-77.04 26.31-20.39 60.77-18.72 85.8-5.36 39.9 21.29 62.78-3.53 91.8-18.32zm723.12 557.37c6.7 13.01 9.88 25.21 17.56 32.92 17.67 17.74 38.7 32.17 56.25 50.02 28.56 29.05 28.99 64.18 14.79 99.71-13.63 34.13-41.84 50.11-77.2 52.05-35 1.92-62.29-16.77-81.33-43.15-22.9-31.71-40.94-66.93-59.85-98.57-23.05 51.31-8.84 115.48 37.3 156.5 47.14 41.9 116.17 47.94 169.94 14.86 53.89-33.16 79.75-97.91 63.24-158.34-17.1-62.58-68.58-103.5-140.7-106zm-552.19 115.43c26.51-2.36 52.31 19.12 72.56-13.35 13.67-21.91 7.45-45.17-5.69-53.85-16.93-11.18-42.78-8.86-66.87-12.69v79.89zm-801.15-687v78.09c23.94.45 47.23 17.39 67.73-8.73 15.71-20.03 11.52-43.28-2.52-53.65-15.74-11.62-40.84-10.55-65.21-15.71zm1213.87-88.67c3.22 3.32 6.44 6.65 9.65 9.97 39.41-34.97 79.27-69.44 117.68-105.48 5.14-4.82 2.88-17.53 4.04-26.58-3.1-1.46-6.21-2.92-9.31-4.38l-122.06 126.47zm-16.49-83.65c2.98 1.42 5.96 2.85 8.93 4.27 16.28-28.32 32.56-56.64 51.05-88.8-71.84-3.75-77.98 6.64-59.98 84.53zm-9.57 578.41c23.98 27.43 40.56 46.38 57.14 65.34 3.23-1.95 6.47-3.9 9.7-5.86-29.24-21.58-15.67-44.94-8.87-75.6-16.45 4.58-32.9 9.15-57.97 16.12zM627.42 2389.08c0 62.6-1.76 118.23.69 173.67 1.36 30.79-12.01 36.75-37.88 34.06-12.85-1.34-25.96-.23-37.96-.23 6.31 11.1 11.89 20.9 21.23 37.33-48.74 0-89 .08-129.25-.02-57.37-.15-114.74-.41-172.1-.66-20.12-.09-40.25-.24-60.37-.49-47.25-.59-94.54-.4-141.71-2.61-9.82-.46-19.22-9.93-28.82-15.25 9.85-3.44 19.57-9.3 29.58-9.84 25.93-1.41 51.98-.47 80.02-3.32-29.37-6.61-28.45-26.48-28.35-48.69.34-79.31-.69-158.64-1.96-237.95-.75-46.7-2.06-93.43-4.77-140.05-2.52-43.36 2.35-53.8 45.94-55 68.08-1.89 136.3 1.23 204.46 2.07 22.57.28 45.39-1.8 67.56 1.18 7.05.95 17.04 14.43 17.64 22.76 2.15 29.89-1.04 60.17 1.42 90.01 2.16 26.1-11.08 32.75-32.2 32.26-36.44-.86-72.85-3.03-109.3-4.02-7.27-.2-14.62 2.44-21.94 3.78.48 4.08.97 8.16 1.45 12.24 35.42 1.51 70.88 4.67 106.26 3.94 23.63-.49 35.7 9.73 36.59 30.98 1.56 37.2.43 74.51.43 116.33H284.2c-.2 3.85-.4 7.69-.61 11.54 54.92 4.04 109.84 8.08 168.8 12.41-2.76 49.83-5.42 97.81-8.18 147.61h43.87c0-43.37.13-84.24-.03-125.1-.21-54.79-.69-109.58-.97-164.38-.3-57.86-.1-115.73-.96-173.59-.28-18.96 7.98-25.93 26-25.41 26.09.75 52.28 1.99 78.29.56 34.71-1.9 42.46 26.38 56.19 47.57 28.68 44.29 56.36 89.22 84.45 133.89 2.61-.61 5.23-1.21 7.84-1.82 0-46.79-.28-93.58.09-140.37.26-32.62 7.38-39.54 39.04-39.31 26.1.19 52.21 1.61 78.28.92 16.71-.44 21.6 5.9 21.44 22.17-.49 49.36.51 98.73.91 148.1.06 7.17.01 14.34 5.28 22.37 1.82-4.8 4.67-9.47 5.29-14.41 6.01-47.89 13.81-95.7 16.48-143.8 1.31-23.6 14.72-29.58 30.78-29.35 70.14 1.03 140.74-.04 210.19 8.11 51.42 6.04 90.52 38.39 129.17 75.81 29.51 28.58 29.89 66.85 54.51 93.83 1.81 1.98 3.11 5.22 3.16 7.9 1.71 93.9-2.98 187.24-87.43 248.89-34.18 24.95-72.98 47.82-122.61 28.69-19.2-7.4-45.17 4.1-68.12 4.78-25.76.76-51.69.06-77.38-1.97-20.17-1.59-29.84-28.16-28.59-58.46 2.65-64.47 3.06-129.05 3.12-193.59.01-7.47-8.03-14.96-11.32-20.67-13.24 9.13-24.83 14.16-31.94 22.86-6.82 8.34-10.88 20.15-12.76 31.02-3.05 17.6-3.25 35.69-4.79 53.56-4.12 47.78-9.65 95.49-11.87 143.36-1.01 21.84-7.11 32.29-30 31.62-25.07-.74-50.39 2.14-75.19-.43-9.12-.95-19.52-11.41-25.2-20.2-33.57-51.99-65.8-104.85-98.8-157.21-5.45-8.68-12.52-16.29-23.21-29.98zm465.84-93.61c0 51.05-.18 98.13.27 145.19.05 4.81 2.52 11.73 6.16 14.03 24.48 15.43 69.63-4.83 71.08-33.41 2.08-41.11.53-82.4.53-125.82-24.01.01-47.52.01-78.04.01z"/><path class="st2" d="M1605.45 2908.43c0-59.92 1.19-111.62-.5-163.22-.85-25.84 8.43-35.25 33.55-33.32 18.26 1.4 36.72.27 46.41.27 18.1 15.43 28.89 28.6 42.79 35.62 25.15 12.71 35.32 30.39 30.99 58.1-1.27 8.15 2.01 17 3.59 28.25 34.59 0 68.24.74 101.8-.66 6.29-.26 15.61-7.89 17.76-14.12 10.57-30.6 18.48-62.13 29.16-92.69 1.98-5.68 12.28-11.74 18.92-11.95 36.77-1.15 73.77-2.49 110.3.72 10.31.9 24.41 15.18 28.06 26.21 27.33 82.57 51.82 166.07 78.57 248.84 14.81 45.82 32.86 90.58 48.16 136.25 5.4 16.14 6.96 33.56 14.1 50.05v-377.21c-3.92-.78-11.89-2.36-29.73-5.91 14.87-11.53 24.3-18.83 35.77-27.73-1.2-33.27 9.77-47.8 48.88-48.18 59.11-.59 118.84 8.37 177.17 2.34 39.35-4.07 61.93 18.44 91.55 31.12 16.86 7.22 35.2 11.51 53.27 15.17 13.84 2.81 25.94 8.95 13.75 21.48-12.17 12.52-6.84 20.73-2.9 32.41 26.52 78.74 20.22 151.79-44.77 209.98-17.72 15.87-42.83 24.71-65.92 32.93-16 5.69-34.31 5.21-51.65 6.75-64.33 5.71-68.8 10.9-63.96 76.04 4.93 66.34 4.92 65.5-61.23 66.58-63.11 1.03-126.18 4.18-189.27 6.18-37.09 1.18-51.3-11.97-62.44-49.37-3.17-10.64-15.88-24.55-25.75-25.93-28.17-3.94-57.14-1.96-85.79-2.78-19.21-.55-28.85 7.15-33.81 26.95-11.09 44.25-12.32 44.04-57.35 44.71-18.34.27-36.7.33-55.03-.08-29-.64-38.91-12.51-30.22-40.64 20.48-66.31 42.69-132.09 63.96-198.16 11.42-35.47 22.35-71.09 34.42-109.58h-109.37c0 33.56.02 64.99-.01 96.41-.06 66.83-1.1 133.67.27 200.47.5 24.26-5.5 34.03-31.69 34.78-95.19 2.74-94.87 3.44-149.19-73.84-29.38-41.81-59.95-82.79-96.6-123.06 0 12.67-.18 25.35.03 38.02.76 45.31 1.23 90.63 2.72 135.92.61 18.55-6.12 26.63-25.22 25.5-21.21-1.25-42.66-2.49-63.73-.6-17.75 1.59-35.77 5.91-52.48 12.18-25.46 9.55-37.44 3.59-37.63-23.18-.43-60.06-.22-120.12-.02-180.17.02-6.63-.77-16.38 3.02-19.38 25.15-19.95 14.6-47.56 15.43-71.63 2.03-58.78 1.57-117.66.88-176.49-.2-16.78 6.46-22.43 21.91-22.78 34.83-.78 69.72-3.89 104.42-2.29 10.96.51 24.53 10.67 31.51 20.32 36.3 50.14 70.83 101.56 106.07 152.48 3.59 5.18 7.74 9.99 17.07 21.92zm760.11-47.33c3.69 26.52.74 55.38 13.3 73.47 5.89 8.48 44.07.88 62.92-8.69 9.23-4.69 15.59-34.77 9.55-45.99-16.98-31.61-49.37-20.58-85.77-18.79zm-358.12 144.06-20.48-64.25c-8.18 23.78-13.87 40.33-20.72 60.23 14.88 1.45 26.48 2.58 41.2 4.02zm1794.57-135.41c25.23-42.85 51.12-85.34 75.34-128.76 8.57-15.36 18.16-22.29 36.29-21.44 40.61 1.88 81.35.96 121.95 2.88 9.03.43 17.73 7.84 26.58 12.04-4.52 6.12-9.47 11.97-13.47 18.41-10.59 17.03-20.41 34.54-31.17 51.45-27.35 42.97-56.25 85.02-82.01 128.91-9.81 16.72 6.59 24.07 20.07 25.39 18.84 1.85 38.71 3.69 56.89-.23 38.8-8.37 68.08 4.44 91.46 36.55l2.31-10.8c14.22 2.09 33.3-.66 41.44 7.49 10.16 10.17 4.76 26.19-14.49 28.02-33.21 3.16-66.47 5.77-99.71 8.7-2.78.24-5.49 1.16-12.8 2.76 29.48 47.71 57.99 93.83 90.68 146.73 34.79-108.99 67.32-210.89 101.23-317.1-58.66 0-112.65.56-166.62-.53-9.5-.19-18.87-7.3-28.3-11.21 10.39-5.83 20.69-16.47 31.2-16.67 48.34-.95 96.77.16 145.09 2.31 21.24.95 30.74-5.55 35.12-27.33 5.6-27.83 15.46-54.96 25.48-81.63 2.08-5.54 12.84-10.82 19.76-11.03 35.81-1.09 71.7.41 107.49-.83 21.29-.74 26.19 14.25 30.75 28.59 26.33 82.9 51.23 166.27 77.96 249.04 14.5 44.9 32.64 88.62 47.2 133.5 6.81 21 8.69 43.56 13.43 65.29 3.34 15.3-3.2 22.25-17.75 22.33-32.04.19-64.09-.66-96.12-.07-21.46.39-31.21-8.83-33.92-30.3-4.61-36.53-9.45-38.51-46.04-37.58-23.01.59-46.11-2.59-69.18-3.74-17.8-.89-27.27 6.77-32.11 25.19-11.94 45.41-12.93 44.96-59.05 46.35-71.33 2.16-142.64 5.26-213.99 6.6-27.72.52-42.48-19.88-55.13-41.37-22.55-38.33-45.06-76.68-67.78-114.91-3.24-5.45-7.57-10.26-15.87-21.34v168.93c-22.09 0-40.76-2.54-58.47.52-38.01 6.59-58.53-13.73-74.72-43.12-1.39-2.51-4.24-6.01-3.46-7.66 21.15-45-31.22-83.73-6.82-124.84-25.07-13.74-45.91-24.22-65.46-36.69-3.8-2.43-5.76-16.76-3.28-18.64 29.78-22.63 13.52-52.21 12.65-78.94-1.71-52.01-5.65-103.96-6.39-155.96-.08-5.93 14.17-17.01 22.03-17.25 31.67-.94 63.49.72 95.16 2.79 32.92 2.15 38.45 22.21 39.66 55.63.99 27.31.2 54.69.2 82.04l6.69 1.53zm548.8 135.51c-6.92-21.83-12.49-39.39-20.41-64.37-8.24 23.71-13.97 40.16-20.87 60.03 14.69 1.55 26.3 2.77 41.28 4.34zm-2975.25-740.19c-19.64-16.12-34.28-48.47-33.57-69.87.63-19.15.39-38.35-.2-57.5-.65-20.91 9.51-30.54 29.79-30.05 34.59.82 69.37.27 103.62 4.19 8.12.93 18.41 16.44 20.7 26.79 3.43 15.51 3.53 33.06-.11 48.53-6.39 27.18 5.51 32.03 28.62 31.01 27-1.19 54.1-.28 83.68-.28 1.79-25.49 5.02-49.23 4.66-72.92-.34-21.83 8.12-29.08 29.28-28.17 29.98 1.29 60.13 1.64 90.07-.08 25.38-1.46 32.28 9.79 30.67 32.8-1.37 19.53-.28 39.24-.28 59.23 43.42-5.82 42.36-4.4 33.8 35.73-5.8 27.18-5.34 56.49-2.94 84.44 4.81 56.1 1.91 110.87-14.24 165.06-16.58 55.61-58.21 85.91-109.6 99.26-72.3 18.77-146.85 22.14-212.71-20.98-28.99-18.98-51.27-48.57-75.19-74.64-4.85-5.29-4.22-16.32-4.71-24.79-3.42-59.72-6.84-119.45-9.22-179.22-.36-8.86 4.8-17.94 7.88-28.54zm155.64-11.76c0 19.5-.82 34 .16 48.36 2.77 40.86 4.99 81.82 9.95 122.43 3.05 25.01 17.4 38.17 45.9 35.75 27.83-2.36 42.58-19.99 43.88-41.93 3.25-55.22 1.08-110.77 1.08-169.23-35.4 1.62-67.68 3.09-100.97 4.62zm3151.39 745.62c-26.58 3.15-53.64 19.33-70.75-13.71-1.34-2.6-12.77-1.89-18.47.17-6.78 2.45-15.15 13-18.13 11.38-14.78-8.03-28.01-18.91-41.79-28.79.96-3.87 1.92-7.74 2.89-11.6 18.06 0 36.13-.08 54.19.02 37.65.21 40.69-3.06 36.37-39.44-.57-4.8-1.47-9.62-1.37-14.42 1.12-52.26-6.42-58.93-58.71-51.51-1.91.27-3.73 1.08-5.63 1.42-48.6 8.49-74.93-15.98-72.48-66.93.42-8.66-.83-17.39-.95-26.09-.52-39.7 12.57-49.65 52.84-46.8 37.24 2.64 74.74 1.5 112.13 1.86 41.66.39 83.32.76 124.98.81 37.47.05 75.24 2.4 112.27-1.73 18.13-2.02 33.33 16.62 50.91 3.56 2.48 6.62 7.29 13.31 7.07 19.84-1.44 43.97-4.77 87.89-5.81 131.87-.61 25.78 1.75 51.63 3.01 77.44 1.23 25.22-8.63 43.04-34.3 48.31-20.29 4.17-41.03 6.17-68.67 10.15 0 34.47-.03 71.57.01 108.66.03 27.11-1.08 54.28.59 81.29 1.31 21.3-12.8 25.25-27.12 25.35-37.74.28-75.64-.3-113.13-4.04-8.04-.8-20.68-16.32-20.8-25.2-.6-43.58 2.84-87.21 3.73-130.84.4-19.96-1.8-39.98-2.88-61.03zm108.42-144.77c-2.69 34.18-5.62 62.91-6.56 91.71-.16 4.97 7.71 14.18 12.59 14.7 30.87 3.3 61.94 5.08 92.98 6.2 3.41.12 9.62-6.77 10.22-11.03 5.02-35.28 9.02-70.7 13.43-106.97-41.64 1.84-81.25 3.58-122.66 5.39zm-1886.64-153.77c-49.43 6.45-49.63 6.4-60.43-18.36 21.29 1.41 44.25-13.13 60.43 18.36zm-810.81-601.31c-33.39 11.02-43.69 8.36-52.05-13.43 35.56-9.19 44.11-6.98 52.05 13.43z"/><path d="M3158.54 2081.75c-18-77.89-11.86-88.28 59.98-84.53-18.49 32.16-34.77 60.48-51.05 88.8-2.98-1.42-5.95-2.85-8.93-4.27zm-2065.28 213.72h78.05c0 43.42 1.55 84.71-.53 125.82-1.45 28.57-46.59 48.84-71.08 33.41-3.64-2.3-6.12-9.22-6.16-14.03-.46-47.08-.28-94.15-.28-145.2zm3257.55 709.79c-14.98-1.58-26.59-2.8-41.29-4.34 6.91-19.87 12.63-36.33 20.87-60.03 7.93 24.98 13.5 42.54 20.42 64.37zm440.2-151.1 122.67-5.39c-4.42 36.27-8.42 71.69-13.43 106.97-.6 4.25-6.82 11.15-10.22 11.03-31.04-1.12-62.1-2.9-92.98-6.2-4.88-.52-12.76-9.73-12.59-14.7.93-28.79 3.87-57.52 6.55-91.71zm-2294.8-610.83c-11.77-4.06-23.55-8.13-35.32-12.19 1.54-4.63 3.09-9.25 4.63-13.88 12 3.53 24.01 7.06 36.01 10.6-1.77 5.15-3.54 10.31-5.32 15.47z" style="fill:none"/></svg>